<svg width="18" height="18" viewBox="0 0 18 18" fill="none" xmlns="http://www.w3.org/2000/svg">
<path d="M9 0C4.02823 0 0 4.02823 0 9C0 13.9718 4.02823 18 9 18C13.9718 18 18 13.9718 18 9C18 4.02823 13.9718 0 9 0ZM9 16.2581C4.98992 16.2581 1.74194 13.0101 1.74194 9C1.74194 4.98992 4.98992 1.74194 9 1.74194C13.0101 1.74194 16.2581 4.98992 16.2581 9C16.2581 13.0101 13.0101 16.2581 9 16.2581ZM11.2427 12.4694L8.16169 10.2302C8.04919 10.1468 7.98387 10.0161 7.98387 9.87823V3.91935C7.98387 3.67984 8.17984 3.48387 8.41935 3.48387H9.58064C9.82016 3.48387 10.0161 3.67984 10.0161 3.91935V9.06169L12.4403 10.8254C12.6363 10.9669 12.6762 11.2391 12.5347 11.4351L11.8524 12.375C11.7109 12.5673 11.4387 12.6109 11.2427 12.4694Z" fill="#708390"/>
</svg>
