<svg fill="none" xmlns="http://www.w3.org/2000/svg">
<path d="M15 0C6.71371 0 0 6.71371 0 15C0 23.2863 6.71371 30 15 30C23.2863 30 30 23.2863 30 15C30 6.71371 23.2863 0 15 0ZM15 27.0968C8.31653 27.0968 2.90323 21.6835 2.90323 15C2.90323 8.31653 8.31653 2.90323 15 2.90323C21.6835 2.90323 27.0968 8.31653 27.0968 15C27.0968 21.6835 21.6835 27.0968 15 27.0968ZM18.7379 20.7823L13.6028 17.0504C13.4153 16.9113 13.3065 16.6935 13.3065 16.4637V6.53226C13.3065 6.13306 13.6331 5.80645 14.0323 5.80645H15.9677C16.3669 5.80645 16.6935 6.13306 16.6935 6.53226V15.1028L20.7339 18.0423C21.0605 18.2782 21.127 18.7319 20.8911 19.0585L19.754 20.625C19.5181 20.9456 19.0645 21.0181 18.7379 20.7823Z" fill="#30BD9F"/>
</svg>
