<svg width="25" height="25" viewBox="0 0 25 25" fill="none" xmlns="http://www.w3.org/2000/svg">
<circle cx="12.5" cy="12.5" r="11.8" stroke="#8D8EA7" stroke-width="1.4"/>
<mask id="mask0" mask-type="alpha" maskUnits="userSpaceOnUse" x="7" y="7" width="11" height="11">
<path fill-rule="evenodd" clip-rule="evenodd" d="M7.45355 7.45633H17.5412V17.544H7.45355V7.45633Z" fill="white"/>
</mask>
<g mask="url(#mask0)">
<path fill-rule="evenodd" clip-rule="evenodd" d="M12.8936 12.5002L17.4592 7.93466C17.5102 7.88394 17.5413 7.81388 17.5413 7.73654C17.5413 7.58187 17.416 7.45633 17.2611 7.45633C17.184 7.45633 17.1139 7.48771 17.0629 7.53843L12.4974 12.104L7.93188 7.53843C7.88116 7.48771 7.81111 7.45633 7.73377 7.45633C7.57881 7.45633 7.45355 7.58187 7.45355 7.73654C7.45355 7.81388 7.48466 7.88394 7.53566 7.93494L12.1012 12.5002L7.53566 17.0657C7.48466 17.1164 7.45355 17.1865 7.45355 17.2638C7.45355 17.4188 7.57881 17.544 7.73377 17.544C7.81111 17.544 7.88116 17.5127 7.93188 17.4619L12.4974 12.8964L17.0629 17.4619C17.1139 17.5127 17.184 17.544 17.2611 17.544C17.416 17.544 17.5413 17.4188 17.5413 17.2638C17.5413 17.1865 17.5102 17.1164 17.4592 17.0657L12.8936 12.5002Z" stroke="#8D8EA7"/>
</g>
</svg>
