<svg  xmlns="http://www.w3.org/2000/svg">
<path d="M10.2857 0.421875V2.67159C10.2857 3.04884 9.82214 3.23374 9.55409 2.96991L8.91646 2.34221L4.56784 6.62289C4.40046 6.78765 4.12912 6.78765 3.96175 6.62289L3.5577 6.22515C3.39032 6.06039 3.39032 5.79328 3.5577 5.62853L7.90636 1.34782L7.2688 0.720193C6.99968 0.455273 7.19028 0 7.57186 0H9.85714C10.0938 0 10.2857 0.188877 10.2857 0.421875ZM7.26837 4.76005L6.98266 5.0413C6.94286 5.08048 6.9113 5.12699 6.88976 5.17817C6.86822 5.22936 6.85714 5.28422 6.85714 5.33962V7.875H1.14286V2.25H5.85714C5.9708 2.24999 6.0798 2.20555 6.16018 2.12644L6.44589 1.84519C6.71587 1.57941 6.52466 1.125 6.14286 1.125H0.857143C0.38375 1.125 0 1.50275 0 1.96875V8.15625C0 8.62225 0.38375 9 0.857143 9H7.14286C7.61625 9 8 8.62225 8 8.15625V5.05835C8 4.6825 7.53836 4.49427 7.26837 4.76005Z" fill="#30BD9F"/>
</svg>
