<svg xmlns="http://www.w3.org/2000/svg">
<path d="M14.269 3.73636C12.2414 3.73636 10.4183 2.4157 7.58684 2.4157C6.29503 2.4157 5.18065 2.68322 4.25545 3.04169C4.34715 2.76646 4.37732 2.47445 4.34385 2.18628C4.23593 1.24259 3.45592 0.50051 2.5081 0.439017C1.35423 0.364153 0.39502 1.27792 0.39502 2.4157C0.39502 3.14883 0.793568 3.78844 1.38551 4.13098V20.9048C1.38551 21.2695 1.68113 21.5652 2.04583 21.5652H2.70616C3.07087 21.5652 3.36649 21.2695 3.36649 20.9048V17.4611C4.92935 16.7481 6.30737 16.2825 8.64191 16.2825C10.6696 16.2825 12.4926 17.6032 15.3241 17.6032C17.7376 17.6032 19.5325 16.6698 20.6293 15.9532C21.1889 15.5876 21.5255 14.964 21.5255 14.2956V4.39408C21.5255 2.97195 20.0701 2.00997 18.7643 2.57336C17.2826 3.21259 15.7328 3.73636 14.269 3.73636ZM19.5445 14.3016C18.6455 14.9376 17.0342 15.6222 15.3241 15.6222C12.8502 15.6222 11.1145 14.3016 8.64191 14.3016C6.85239 14.3016 4.66432 14.6896 3.36649 15.2921V5.71733C4.26552 5.08127 5.87672 4.39668 7.58684 4.39668C10.0608 4.39668 11.7965 5.71733 14.269 5.71733C16.0549 5.71733 18.2442 5.00063 19.5445 4.39668V14.3016Z" fill="white"/>
</svg>
