<svg width="116" height="23" viewBox="0 0 116 23" fill="none" xmlns="http://www.w3.org/2000/svg">
<path d="M57.2189 0.0797546C57.0617 0.0797546 56.9831 0.159509 56.8259 0.239264C56.7473 0.319018 56.6687 0.478528 56.6687 0.638037V12.362C56.6687 12.5215 56.7473 12.6012 56.8259 12.7607C56.9045 12.8405 57.0617 12.9202 57.2189 12.9202C57.3761 12.9202 57.4547 12.8405 57.6119 12.7607C57.6905 12.681 57.769 12.5215 57.769 12.362V7.01841H60.7557L63.5067 12.681C63.5853 12.8405 63.7424 13 63.9782 13C64.0568 13 64.1354 13 64.214 12.9202C64.3712 12.8405 64.4498 12.7607 64.4498 12.6012C64.5284 12.4417 64.4498 12.362 64.4498 12.2025L61.9347 7.01841C62.7993 6.8589 63.5852 6.46012 64.1354 5.82209C64.7642 5.18405 65 4.46626 65 3.58896C65 2.6319 64.607 1.83436 63.8996 1.11656C63.1923 0.478528 62.3277 0.0797546 61.3059 0.0797546H57.2189ZM63.1137 5.18405C62.6421 5.66258 62.0133 5.90184 61.3059 5.90184H57.769V1.11656H61.2273C61.9347 1.11656 62.5635 1.35583 63.1137 1.83436C63.6639 2.31288 63.8996 2.87117 63.8996 3.5092C63.8996 4.14724 63.5853 4.70552 63.1137 5.18405ZM51.8742 12.9202C52.0314 12.9202 52.11 12.8405 52.2672 12.7607C52.3458 12.681 52.4244 12.5215 52.4244 12.362C52.4244 12.2025 52.3458 12.1227 52.2672 11.9632C52.1886 11.8834 52.0314 11.8037 51.8742 11.8037H45.3507V7.01841H50.2237C50.3809 7.01841 50.4595 6.93865 50.6167 6.8589C50.6953 6.77914 50.7739 6.61963 50.7739 6.46012C50.7739 6.30061 50.6953 6.22086 50.6167 6.06135C50.5381 5.98159 50.3809 5.90184 50.2237 5.90184H45.3507V1.11656H51.8742C52.0314 1.11656 52.11 1.03681 52.2672 0.957055C52.3458 0.877301 52.4244 0.717791 52.4244 0.558282C52.4244 0.398773 52.3458 0.319018 52.2672 0.159509C52.1886 0.0797546 52.0314 0 51.8742 0H44.8005C44.6433 0 44.5647 0.0797546 44.4075 0.159509C44.3289 0.239264 44.2503 0.398773 44.2503 0.558282V12.362C44.2503 12.5215 44.3289 12.6012 44.4075 12.7607C44.4861 12.8405 44.6433 12.9202 44.8005 12.9202H51.8742ZM32.3035 12.681C32.3821 12.6012 32.4607 12.4417 32.4607 12.2822V8.85276L34.0326 7.17791L39.2987 12.7607C39.3773 12.8405 39.5345 12.9202 39.6917 12.9202C39.8489 12.9202 39.9274 12.8405 40.0846 12.7607C40.1632 12.681 40.2418 12.5215 40.2418 12.362C40.2418 12.2025 40.1632 12.1227 40.0846 11.9632L34.8186 6.30061L39.9274 0.957055C40.006 0.877301 40.0846 0.717791 40.0846 0.558282C40.0846 0.398773 40.006 0.319018 39.9274 0.159509C39.8489 0.0797546 39.6917 0 39.5345 0C39.3773 0 39.2987 0.0797546 39.1415 0.159509L32.4607 7.33742V0.558282C32.4607 0.398773 32.3821 0.319018 32.3035 0.159509C32.2249 0.0797546 32.0677 0 31.9105 0C31.7533 0 31.6747 0.0797546 31.5175 0.159509C31.5175 0.319018 31.4389 0.398773 31.4389 0.558282V12.2822C31.4389 12.4417 31.5175 12.5215 31.5961 12.681C31.6747 12.7607 31.8319 12.8405 31.9891 12.8405C32.0677 12.8405 32.2249 12.7607 32.3035 12.681ZM17.37 12.9202C17.6058 12.9202 17.763 12.8405 17.8416 12.6012L18.942 9.88957H25.3869L26.4873 12.6012C26.5659 12.8405 26.7231 12.9202 26.9589 12.9202C27.0375 12.9202 27.1161 12.9202 27.1947 12.8405C27.3519 12.7607 27.4305 12.681 27.5091 12.5215C27.5877 12.362 27.5877 12.2822 27.5091 12.1227L26.2515 9.09202L22.636 0.319018C22.636 0.319018 22.636 0.239264 22.5574 0.239264C22.5574 0.239264 22.5574 0.239264 22.5574 0.159509C22.5574 0.159509 22.5574 0.159509 22.4788 0.159509C22.4002 0.0797546 22.3216 0.0797546 22.3216 0.0797546H22.243H22.1645C22.1645 0.0797546 22.1645 0.0797546 22.0859 0.0797546H22.0073C21.9287 0.0797546 21.8501 0.0797546 21.8501 0.159509C21.8501 0.159509 21.8501 0.159509 21.7715 0.159509C21.7715 0.159509 21.7715 0.159509 21.7715 0.239264C21.7715 0.239264 21.7715 0.319018 21.6929 0.319018L18.0774 9.09202L16.8198 12.1227C16.7412 12.2822 16.7412 12.362 16.8198 12.5215C16.8984 12.681 16.977 12.7607 17.1342 12.8405C17.2128 12.9202 17.2914 12.9202 17.37 12.9202ZM19.3349 8.85276L22.1645 1.99387L24.994 8.85276H19.3349ZM1.02177 2.55215L5.8162 10.5276C5.8162 10.5276 5.8162 10.5276 5.8162 10.6074C5.8162 10.6074 5.8162 10.6074 5.8948 10.6074C5.8948 10.6074 5.8948 10.6074 5.9734 10.6074C5.9734 10.6074 5.9734 10.6074 6.052 10.6074C6.052 10.6074 6.052 10.6074 6.13059 10.6074C6.13059 10.6074 6.13059 10.6074 6.20919 10.6074C6.20919 10.6074 6.20919 10.6074 6.28779 10.6074C6.28779 10.6074 6.28779 10.6074 6.36638 10.6074C6.36638 10.6074 6.36638 10.6074 6.44498 10.6074C6.44498 10.6074 6.44498 10.6074 6.52358 10.6074C6.52358 10.6074 6.52358 10.6074 6.60218 10.6074C6.60218 10.6074 6.60218 10.6074 6.68077 10.6074C6.68077 10.6074 6.68077 10.6074 6.75937 10.6074C6.75937 10.6074 6.75937 10.6074 6.75937 10.5276L11.5538 2.55215V12.4417C11.5538 12.6012 11.6324 12.681 11.711 12.8405C11.7896 12.9202 11.9468 13 12.104 13C12.2612 13 12.3398 12.9202 12.497 12.8405C12.5756 12.7607 12.6542 12.6012 12.6542 12.4417V0.638037C12.6542 0.398773 12.497 0.159509 12.2612 0.159509C12.0254 0.0797546 11.7896 0.159509 11.6324 0.398773L6.28779 9.17178L1.02177 0.319018C0.864571 0.0797546 0.628779 -2.98023e-08 0.392987 0.0797546C0.157195 0.159509 0 0.319018 0 0.638037V12.4417C0 12.6012 0.0785973 12.681 0.157195 12.8405C0.235792 12.8405 0.392987 12.9202 0.550181 12.9202C0.707376 12.9202 0.785973 12.8405 0.943168 12.7607C1.02177 12.681 1.10036 12.5215 1.10036 12.362V2.55215H1.02177Z" transform="translate(50.2549 6)" fill="white" stroke="white" stroke-width="0.35"/>
<path d="M13.8238 19.6902V10.2507C13.8238 9.58063 13.4883 8.95509 12.93 8.58447L1.55311 1.03114C0.888433 0.589846 0 1.06641 0 1.86424V19.6902" transform="translate(1.14722 1)" stroke="white" stroke-width="2.2"/>
<path d="M0 19.6902V10.2507C0 9.58063 0.335545 8.95509 0.893774 8.58447L12.2707 1.03114C12.9354 0.589846 13.8238 1.06641 13.8238 1.86424V19.6902" transform="translate(20.3108 1)" stroke="white" stroke-width="2.2"/>
<rect width="2.2" height="3" rx="1.1" transform="translate(0.048584 19.2)" fill="white"/>
<rect width="2.2" height="3" rx="1.1" transform="translate(19.2085 19.2)" fill="white"/>
<rect width="2.2" height="3" rx="1.1" transform="translate(33.0285 19.2)" fill="white"/>
<rect width="2.2" height="3" rx="1.1" transform="translate(13.8685 19.2)" fill="white"/>
</svg>
