<svg width="164" height="170" viewBox="0 0 164 170" fill="none" xmlns="http://www.w3.org/2000/svg">
<path d="M28.9992 0L19.2125 33.1827L0 27.9136L28.9992 0Z" transform="translate(125.816 117.602)" fill="#E4761B" stroke="#E4761B"/>
<path d="M0 27.9136L18.5306 2.45351L28.9992 0L0 27.9136Z" transform="translate(125.816 117.602)" fill="#E4761B" stroke="#E4761B"/>
<path d="M0 6.43542L14.3993 31.4531L3.93073 33.9066L0 6.43542ZM0 6.43542L9.26531 0L14.3993 31.4531L0 6.43542Z" transform="translate(140.417 86.1484)" fill="#F6851B" stroke="#F6851B"/>
<path d="M0 10.9402L26.6327 0L25.3091 5.99298L0 10.9402ZM24.4668 13.1926L0 10.9402L25.3091 5.99298L24.4668 13.1926Z" transform="translate(128.625 62.7397)" fill="#763D16" stroke="#763D16"/>
<path d="M24.4668 13.1926L21.0575 23.4088L0 10.9402L24.4668 13.1926ZM29.8014 2.53395L25.3091 5.99298L26.6327 0L29.8014 2.53395ZM24.4668 13.1926L25.3091 5.99298L28.8789 8.96937L24.4668 13.1926Z" transform="translate(128.625 62.7397)" fill="#763D16" stroke="#763D16"/>
<path d="M0 0L6.65819 2.13173L20.6564 8.08449L0 0Z" transform="translate(105.164 137.431)" fill="#E2761B" stroke="#E2761B"/>
<path d="M27.6355 12.4686L31.0448 2.2524L33.9728 4.50479L27.6355 12.4686ZM27.6355 12.4686L0 3.33838L6.57797 0L27.6355 12.4686Z" transform="translate(122.045 73.6802)" fill="#763D16" stroke="#763D16"/>
<path d="M13.1559 0L6.57797 31.3325L0 34.6708L13.1559 0Z" transform="translate(122.045 42.3477)" fill="#763D16" stroke="#763D16"/>
<path d="M26.6327 20.3922L0 31.3325L6.57797 0L26.6327 20.3922Z" transform="translate(128.625 42.3477)" fill="#763D16" stroke="#763D16"/>
<path d="M0 3.21771L27.7959 0L20.0548 23.6099L0 3.21771Z" transform="translate(135.204 39.1299)" fill="#763D16" stroke="#763D16"/>
<path d="M27.6355 9.13025L18.3702 15.5657L0 0L27.6355 9.13025Z" transform="translate(122.045 77.0186)" fill="#F6851B" stroke="#F6851B"/>
<path d="M26.5926 0L27.7959 22.5642L0 25.7819L26.5926 0Z" transform="translate(135.204 16.5659)" fill="#763D16" stroke="#763D16"/>
<path d="M56.2737 0L0.721967 40.5029L0 13.0317L56.2737 0Z" transform="translate(105.521 16.5659)" fill="#E2761B" stroke="#E2761B"/>
<path d="M0 0L41.3129 3.29815L42.0348 30.7694L0 0Z" transform="translate(64.2051 26.2993)" fill="#F6851B" stroke="#F6851B"/>
<path d="M15.8032 34.6708L0 14.721L28.9591 0L15.8032 34.6708Z" transform="translate(106.246 42.3477)" fill="#763D16" stroke="#763D16"/>
<path d="M7.42027 0L25.7904 15.5657L0 18.4214L7.42027 0Z" transform="translate(114.628 77.0186)" fill="#E4761B" stroke="#E4761B"/>
<path d="M8.38291 38.3712L0 0L15.8032 19.9498L8.38291 38.3712Z" transform="translate(106.246 57.0684)" fill="#E4761B" stroke="#E4761B"/>
<path d="M28.9591 25.7819L0 40.5029L55.5517 0L28.9591 25.7819Z" transform="translate(106.246 16.5659)" fill="#763D16" stroke="#763D16"/>
<path d="M4.73292 2.57418L17.8488 16.2897L0 0L4.73292 2.57418Z" transform="translate(59.8359 142.297)" fill="#C0AD9E" stroke="#C0AD9E"/>
<path d="M0 25.4601L6.21698 1.76974L18.5306 0L0 25.4601Z" transform="translate(125.816 120.056)" fill="#CD6116" stroke="#CD6116"/>
<path d="M0 23.9317L22.702 0L2.928 21.076L0 23.9317Z" transform="translate(11.3799 54.9375)" fill="#E2761B" stroke="#E2761B"/>
<path d="M80.1389 93.7561L67.8253 95.5258L76.2082 66.2848L80.1389 93.7561ZM42.0348 30.7694L19.9345 30.0454L0 0L42.0348 30.7694Z" transform="translate(64.2051 26.2993)" fill="#F6851B" stroke="#F6851B"/>
<path d="M9.06476 0L0.681867 29.2409L0 14.9624L9.06476 0Z" transform="translate(131.353 92.584)" fill="#E4751F" stroke="#E4751F"/>
<path d="M0 2.85572L25.7904 0L16.7257 14.9624L0 2.85572Z" transform="translate(114.628 92.584)" fill="#CD6116" stroke="#CD6116"/>
<path d="M0 0L22.1004 0.72398L30.4833 39.0952L0 0Z" transform="translate(84.1436 56.3447)" fill="#F6851B" stroke="#F6851B"/>
<path d="M82.1444 55.3446L22.5015 0L62.2099 25.2993L82.1444 55.3446ZM62.1698 152.278L10.3483 168.367L0 128.749L62.1698 152.278Z" transform="translate(2 1)" fill="#E4761B" stroke="#E4761B"/>
<path d="M0 15.4048L19.5735 0L35.9783 3.82103L0 15.4048Z" transform="translate(19.0801 73.3584)" fill="#763D16" stroke="#763D16"/>
<path d="M16.4048 40.1811L0 36.3601L8.78399 0L16.4048 40.1811Z" transform="translate(38.6631 36.998)" fill="#763D16" stroke="#763D16"/>
<path d="M0 2.65461L24.3465 0L4.77304 15.4048L0 2.65461Z" transform="translate(14.3193 73.3584)" fill="#763D16" stroke="#763D16"/>
<path d="M16.7257 12.1066L6.61808 6.99852L0 0L16.7257 12.1066Z" transform="translate(114.628 95.4399)" fill="#CD6116" stroke="#CD6116"/>
<path d="M1.72471 9.13025L0 0L26.0712 6.47564L1.72471 9.13025Z" transform="translate(12.5957 66.8823)" fill="#763D16" stroke="#763D16"/>
<path d="M0 11.5033L2.0857 0L12.1933 5.10812L0 11.5033Z" transform="translate(119.163 102.438)" fill="#233447" stroke="#233447"/>
<path d="M12.8752 14.2786L0 6.3952L12.1933 0L12.8752 14.2786Z" transform="translate(119.163 107.547)" fill="#F6851B" stroke="#F6851B"/>
<path d="M28.197 36.3601L2.12581 29.8845L0 22.2022L28.197 36.3601ZM36.981 0L28.197 36.3601L0 22.2022L36.981 0ZM36.981 0L73.6813 19.3465L44.6018 40.1811L36.981 0Z" transform="translate(10.46 36.998)" fill="#763D16" stroke="#763D16"/>
<path d="M0 20.8347L29.0794 0L42.0348 39.6985L0 20.8347ZM42.0348 39.6985L1.84504 38.8539L0 20.8347L42.0348 39.6985Z" transform="translate(55.0645 56.3447)" fill="#E4761B" stroke="#E4761B"/>
<path d="M0 32.4184L35.9783 20.8347L37.8233 38.8539L0 32.4184ZM95.541 39.0952L78.0131 39.6985L65.0577 0L95.541 39.0952Z" transform="translate(19.0801 56.3447)" fill="#F6851B" stroke="#F6851B"/>
<path d="M6.61808 6.99852L4.53237 18.5018L0 0L6.61808 6.99852Z" transform="translate(114.628 95.4399)" fill="#CD6116" stroke="#CD6116"/>
<path d="M0 0L59.6429 55.3446L22.9427 35.9981L0 0Z" transform="translate(24.5039 1)" fill="#763D16" stroke="#763D16"/>
<path d="M0 2.09152L50.2974 0L62.1698 25.621L0 2.09152Z" transform="translate(2 127.657)" fill="#E4761B" stroke="#E4761B"/>
<path d="M11.8724 26.8277L0 1.20664L24.7075 0L11.8724 26.8277Z" transform="translate(52.2959 126.45)" fill="#CD6116" stroke="#CD6116"/>
<path d="M117.16 25.1786L130.035 33.062L137.135 49.8343L117.16 25.1786ZM54.91 6.43542L0 40.9856L17.0867 0L54.91 6.43542ZM50.2974 38.8941L0 40.9856L54.91 6.43542L50.2974 38.8941ZM112.628 6.67675L115.917 18.6627L100.033 19.5878L112.628 6.67675ZM100.033 19.5878L95.0998 7.28007L112.628 6.67675L100.033 19.5878Z" transform="translate(2 88.7632)" fill="#F6851B" stroke="#F6851B"/>
<path d="M13.5169 5.30922L0 0L47.0084 7.92361L13.5169 5.30922Z" transform="translate(64.1709 153.278)" fill="#C0AD9E" stroke="#C0AD9E"/>
<path d="M7.70103 12.7502L0 2.85572L2.928 0L7.70103 12.7502Z" transform="translate(11.3799 76.0127)" fill="#763D16" stroke="#763D16"/>
<path d="M52.343 2.05129L47.0084 7.92361L0 0L52.343 2.05129Z" transform="translate(64.1709 153.278)" fill="#D7C1B3" stroke="#D7C1B3"/>
<path d="M54.8699 14.4797L0 26.8277L12.8351 0L54.8699 14.4797Z" transform="translate(64.1709 126.45)" fill="#E4761B" stroke="#E4761B"/>
<path d="M0 12.348L54.8699 0L52.343 14.3993L0 12.348Z" transform="translate(64.1709 140.93)" fill="#D7C1B3" stroke="#D7C1B3"/>
<path d="M1.80493 30.9302L0 0L38.7859 8.72804L1.80493 30.9302ZM5.65545 47.7428L0.320876 42.3129L3.93074 38.6125L5.65545 47.7428Z" transform="translate(8.66504 28.27)" fill="#763D16" stroke="#763D16"/>
<path d="M0 7.96384L8.98454 0L7.70104 19.4672L0 7.96384Z" transform="translate(88.1133 96.043)" fill="#CD6116" stroke="#CD6116"/>
<path d="M22.0603 0L13.0757 7.96384L0 14.7612L22.0603 0Z" transform="translate(75.0371 96.043)" fill="#CD6116" stroke="#CD6116"/>
<path d="M19.9746 24.6557L17.5279 22.8458L0 0L19.9746 24.6557Z" transform="translate(119.163 113.941)" fill="#F6851B" stroke="#F6851B"/>
<path d="M18.1295 15.6059L0 0L40.1898 0.844652L18.1295 15.6059Z" transform="translate(56.915 95.1982)" fill="#CD6116" stroke="#CD6116"/>
<path d="M0 19.4672L1.2835 0L6.21698 12.3077L0 19.4672Z" transform="translate(95.8135 96.043)" fill="#E4751F" stroke="#E4751F"/>
<path d="M0 3.05683L3.24888 0L5.37468 7.68229L0 3.05683Z" transform="translate(7.21777 59.2007)" fill="#763D16" stroke="#763D16"/>
<path d="M20.7768 11.5033L0 6.79741L13.0757 0L20.7768 11.5033Z" transform="translate(75.0371 104.007)" fill="#233447" stroke="#233447"/>
<path d="M38.7859 35.9981L0 27.2701L15.8433 0L38.7859 35.9981Z" transform="translate(8.66504 1)" fill="#763D16" stroke="#763D16"/>
<path d="M33.4915 2.61439L35.6975 8.6476L0 0L33.4915 2.61439Z" transform="translate(77.6895 158.588)" fill="#C0AD9E" stroke="#C0AD9E"/>
<path d="M1.96537 15.6461L0 0L20.7768 4.70591L1.96537 15.6461Z" transform="translate(75.0371 110.805)" fill="#F6851B" stroke="#F6851B"/>
<path d="M0 0L18.1295 15.6059L20.0949 31.252L0 0Z" transform="translate(56.915 95.1982)" fill="#E4751F" stroke="#E4751F"/>
<path d="M49.7359 13.1524L65.6192 12.2273L84.3905 41.5889L49.7359 13.1524ZM4.6126 0L24.7075 31.252L0 32.4587L4.6126 0Z" transform="translate(52.2959 95.1982)" fill="#F6851B" stroke="#F6851B"/>
<path d="M6.21698 0L25.9509 30.1258L0 7.15942L6.21698 0Z" transform="translate(95.8135 108.352)" fill="#E4751F" stroke="#E4751F"/>
<path d="M0 0L25.9509 22.9664L23.2234 25.4199L0 0Z" transform="translate(95.8135 115.51)" fill="#F6851B" stroke="#F6851B"/>
<path d="M42.0348 32.5793L0 18.0996L18.8114 7.15942L42.0348 32.5793ZM59.683 28.4365L44.7623 30.1258L25.0284 0L59.683 28.4365Z" transform="translate(77.0059 108.352)" fill="#F6851B" stroke="#F6851B"/>
<path d="M29.4404 0L23.0229 12.9111L2.20603 16.2897L29.4404 0ZM2.20603 16.2897L0 10.2565L5.33457 4.38414L2.20603 16.2897Z" transform="translate(111.179 150.946)" fill="#C0AD9E" stroke="#C0AD9E"/>
<path d="M3.12854 4.38414L7.05929 2.8155L0 16.2897L3.12854 4.38414ZM0 16.2897L7.05929 2.8155L27.2344 0L0 16.2897Z" transform="translate(113.384 150.946)" fill="#C0AD9E" stroke="#C0AD9E"/>
<path d="M10.0675 0L15.001 3.0166L0 4.82657L10.0675 0Z" transform="translate(126.619 136.787)" fill="#161616" stroke="#161616"/>
<path d="M4.85326 4.82657L0 1.68929L14.9208 0L4.85326 4.82657ZM3.12854 7.19963L21.3784 4.98745L18.8515 14.1579L3.12854 7.19963Z" transform="translate(121.766 136.787)" fill="#161616" stroke="#161616"/>
<path d="M24.1059 12.4686L3.93074 15.2841L8.3829 5.51033L24.1059 12.4686ZM3.93074 15.2841L0 16.8528L2.52691 2.45351L3.93074 15.2841ZM2.52691 2.45351L5.25436 0L10.1076 3.13728L2.52691 2.45351ZM25.1086 1.32731L26.6327 3.29816L8.3829 5.51033L25.1086 1.32731Z" transform="translate(116.515 138.477)" fill="#161616" stroke="#161616"/>
<path d="M5.85599 4.18302L7.58071 1.80996L22.5817 0L5.85599 4.18302ZM0 1.12619L5.85599 4.18302L1.40383 13.9568L0 1.12619Z" transform="translate(119.04 139.804)" fill="#161616" stroke="#161616"/>
<path d="M7.5807 0.683769L5.85599 3.05683L0 0L7.5807 0.683769Z" transform="translate(119.04 140.93)" fill="#161616" stroke="#161616"/>
</svg>
