<svg xmlns="http://www.w3.org/2000/svg">
<path d="M13.3321 8.43108L6.8805 4.5088C6.30132 4.18622 5.57185 4.60044 5.57185 5.27859V12.9032C5.57185 13.5777 6.29765 13.9956 6.8805 13.673L13.3321 9.97067C13.9333 9.6371 13.9333 8.76833 13.3321 8.43108ZM18.1818 9.09091C18.1818 4.06891 14.1129 0 9.09091 0C4.06891 0 0 4.06891 0 9.09091C0 14.1129 4.06891 18.1818 9.09091 18.1818C14.1129 18.1818 18.1818 14.1129 18.1818 9.09091ZM1.75953 9.09091C1.75953 5.04032 5.04032 1.75953 9.09091 1.75953C13.1415 1.75953 16.4223 5.04032 16.4223 9.09091C16.4223 13.1415 13.1415 16.4223 9.09091 16.4223C5.04032 16.4223 1.75953 13.1415 1.75953 9.09091Z" fill="#9AA3AD"/>
</svg>
