<svg width="64" height="58" viewBox="0 0 64 58" fill="none" xmlns="http://www.w3.org/2000/svg">
<path fill-rule="evenodd" clip-rule="evenodd" d="M25.4014 4.48852C28.319 -0.617268 35.6811 -0.617269 38.5987 4.48852L62.4506 46.2294C65.3458 51.296 61.6874 57.6 55.8519 57.6H8.1481C2.31265 57.6 -1.34575 51.296 1.54945 46.2294L25.4014 4.48852ZM55.8519 50L32 8.25918L8.1481 50L55.8519 50Z" fill="#F77249"/>
<path d="M28.2 23.4C28.2 21.3014 29.9013 19.6 32 19.6C34.0987 19.6 35.8 21.3014 35.8 23.4V31.76C35.8 33.439 34.439 34.8 32.76 34.8H31.24C29.5611 34.8 28.2 33.439 28.2 31.76V23.4Z" fill="#F77249"/>
<path d="M28.2 42.4C28.2 40.3013 29.9013 38.6 32 38.6C34.0987 38.6 35.8 40.3013 35.8 42.4C35.8 44.4987 34.0987 46.2 32 46.2C29.9013 46.2 28.2 44.4987 28.2 42.4Z" fill="#F77249"/>
</svg>
