<svg width="22" height="18" viewBox="0 0 22 18" fill="none" xmlns="http://www.w3.org/2000/svg">
<path d="M10.7681 7.40282L1.8764 0.178818C1.6014 -0.0451817 1.19807 -0.00784846 0.959734 0.309485L0.189734 1.42948C-0.0302656 1.74682 0.0614011 2.17615 0.318068 2.40015L6.64307 7.55215C6.86307 7.73882 6.86307 8.11215 6.64307 8.29882L0.318068 13.4322C0.0430677 13.6562 -0.0485989 14.1228 0.189734 14.4028L0.959734 15.6161C1.17973 15.9335 1.6014 15.9895 1.8764 15.7468L10.7681 8.52282C11.1347 8.24282 11.1347 7.68282 10.7681 7.40282Z" fill="black"/>
<path d="M21.3463 15.8961H8.9713C8.60464 15.8961 8.29297 16.2135 8.29297 16.5868V17.9868C8.29297 18.3601 8.60464 18.6775 8.9713 18.6775H21.3463C21.713 18.6775 22.0246 18.3601 22.0246 17.9868V16.5868C22.043 16.2135 21.713 15.8961 21.3463 15.8961Z" fill="black"/>
</svg>
