<svg width="24" height="54" viewBox="0 0 24 54" fill="none" xmlns="http://www.w3.org/2000/svg">
<line x1="12" x2="12" y2="54" stroke="#30BD9F" stroke-width="2"/>
<circle cx="12" cy="27" r="11" fill="white" stroke="#30BD9F" stroke-width="2"/>
<path d="M13.655 25.3451C15.0553 26.7469 15.0361 28.9943 13.6634 30.3745C13.6609 30.3774 13.6578 30.3804 13.655 30.3832L12.08 31.9582C10.6909 33.3474 8.43079 33.3472 7.04186 31.9582C5.65271 30.5693 5.65271 28.309 7.04186 26.9201L7.91153 26.0504C8.14216 25.8198 8.53933 25.9731 8.55124 26.299C8.56642 26.7144 8.64091 27.1317 8.77835 27.5347C8.82489 27.6711 8.79164 27.822 8.68968 27.924L8.38296 28.2307C7.72609 28.8876 7.70549 29.9571 8.35588 30.6204C9.0127 31.2902 10.0923 31.2942 10.7541 30.6324L12.3291 29.0576C12.9899 28.3969 12.9871 27.3289 12.3291 26.671C12.2424 26.5844 12.155 26.5171 12.0868 26.4701C12.0385 26.437 11.9986 26.393 11.9704 26.3417C11.9421 26.2904 11.9262 26.2332 11.9239 26.1747C11.9147 25.927 12.0024 25.6718 12.1981 25.4761L12.6916 24.9826C12.821 24.8532 13.024 24.8373 13.174 24.9421C13.3458 25.062 13.5068 25.1969 13.655 25.3451ZM16.9582 22.0418C15.5692 20.6528 13.3092 20.6526 11.92 22.0418L10.345 23.6168C10.3422 23.6196 10.3392 23.6226 10.3366 23.6255C8.96395 25.0057 8.94471 27.2531 10.345 28.6549C10.4932 28.8031 10.6542 28.9379 10.826 29.0579C10.976 29.1626 11.1791 29.1467 11.3084 29.0174L11.8019 28.5239C11.9976 28.3282 12.0853 28.073 12.0761 27.8253C12.0738 27.7668 12.0579 27.7096 12.0297 27.6583C12.0014 27.607 11.9615 27.563 11.9132 27.5299C11.845 27.4829 11.7576 27.4156 11.6709 27.329C11.0129 26.6711 11.0101 25.6031 11.6709 24.9424L13.2459 23.3676C13.9077 22.7058 14.9873 22.7098 15.6441 23.3796C16.2945 24.0428 16.2739 25.1124 15.6171 25.7693L15.3103 26.076C15.2084 26.1779 15.1751 26.3289 15.2217 26.4653C15.3591 26.8683 15.4336 27.2856 15.4488 27.701C15.4607 28.0269 15.8578 28.1802 16.0885 27.9495L16.9581 27.0799C18.3473 25.691 18.3473 23.4307 16.9582 22.0418Z" fill="#30BD9F"/>
</svg>
