<svg width="27" height="27" viewBox="0 0 27 27" fill="none" xmlns="http://www.w3.org/2000/svg">
<path d="M17.2237 9.77649C20.3744 12.9305 20.3312 17.9871 17.2427 21.0927C17.2369 21.0991 17.23 21.1059 17.2237 21.1122L13.68 24.656C10.5544 27.7815 5.46927 27.7811 2.34418 24.656C-0.781392 21.531 -0.781392 16.4453 2.34418 13.3202L4.30094 11.3635C4.81984 10.8446 5.71348 11.1894 5.74027 11.9228C5.77444 12.8573 5.94203 13.7963 6.25127 14.703C6.356 15.01 6.28117 15.3496 6.05177 15.579L5.36164 16.2691C3.8837 17.7471 3.83735 20.1535 5.30073 21.6459C6.77856 23.153 9.20761 23.162 10.6968 21.6728L14.2405 18.1296C15.7272 16.643 15.7209 14.2401 14.2405 12.7597C14.0454 12.5649 13.8488 12.4135 13.6952 12.3078C13.5866 12.2332 13.4969 12.1342 13.4333 12.0188C13.3697 11.9034 13.3339 11.7747 13.3289 11.643C13.308 11.0858 13.5054 10.5115 13.9457 10.0712L15.056 8.9609C15.3472 8.66975 15.8039 8.634 16.1415 8.86962C16.5281 9.13959 16.8903 9.44305 17.2237 9.77649ZM24.6558 2.34401C21.5307 -0.781126 16.4456 -0.781548 13.32 2.34401L9.7763 5.88776C9.76997 5.89408 9.76311 5.90094 9.75731 5.90727C6.66887 9.01289 6.62557 14.0695 9.7763 17.2235C10.1097 17.5569 10.4718 17.8604 10.8585 18.1303C11.1961 18.3659 11.6528 18.3301 11.9439 18.0391L13.0542 16.9287C13.4945 16.4884 13.692 15.9142 13.6711 15.3569C13.6661 15.2252 13.6303 15.0966 13.5667 14.9811C13.5031 14.8657 13.4134 14.7668 13.3048 14.6922C13.1512 14.5864 12.9546 14.4351 12.7594 14.2403C11.279 12.7599 11.2728 10.357 12.7594 8.87035L16.3032 5.32714C17.7923 3.83797 20.2213 3.84694 21.6992 5.35403C23.1626 6.84641 23.1163 9.25289 21.6383 10.7308L20.9482 11.421C20.7188 11.6503 20.644 11.99 20.7487 12.297C21.0579 13.2037 21.2255 14.1426 21.2597 15.0772C21.2865 15.8105 22.1801 16.1554 22.699 15.6365L24.6558 13.6797C27.7814 10.5547 27.7814 5.46905 24.6558 2.34401Z" fill="#231536"/>
</svg>
