<svg width="24" height="54" viewBox="0 0 24 54" fill="none" xmlns="http://www.w3.org/2000/svg">
<line x1="12" x2="12" y2="54" stroke="#30BD9F" stroke-width="2"/>
<circle cx="12" cy="27" r="11" fill="white" stroke="#30BD9F" stroke-width="2"/>
<path d="M16.0548 25.6734H15.446C15.3679 25.6734 15.2899 25.6116 15.2899 25.5188V24.0957C15.2899 22.456 14.0099 21.0639 12.3552 21.002C10.6225 20.9401 9.18636 22.3168 9.18636 24.0338V25.5342C9.18636 25.6116 9.12392 25.6889 9.03026 25.6889H8.42147C8.18732 25.6889 8 25.8745 8 26.1066V31.5824C8 31.8144 8.18732 32 8.42147 32H16.0392C16.2733 32 16.4606 31.8144 16.4606 31.5824V26.0911C16.4762 25.8591 16.2889 25.6734 16.0548 25.6734ZM10.1386 24.0338C10.1386 22.8427 11.1376 21.8837 12.3552 21.9456C13.4947 22.0074 14.3689 22.9665 14.3689 24.0957V25.5342C14.3689 25.6116 14.3064 25.6889 14.2128 25.6889H10.2791C10.201 25.6889 10.123 25.627 10.123 25.5342V24.0338H10.1386Z" fill="#30BD9F"/>
</svg>
