<svg width="16" height="20" viewBox="0 0 16 20" fill="none" xmlns="http://www.w3.org/2000/svg">
<path d="M14.5056 8.49718H13.4092C13.2686 8.49718 13.1281 8.38468 13.1281 8.21593V5.6285C13.1281 2.64733 10.8229 0.116146 7.84312 0.00364905C4.72274 -0.108848 2.13648 2.39421 2.13648 5.516V8.24406C2.13648 8.38468 2.02403 8.5253 1.85536 8.5253H0.759012C0.337338 8.5253 0 8.86279 0 9.28466V19.2406C0 19.6625 0.337338 20 0.759012 20H14.4774C14.8991 20 15.2365 19.6625 15.2365 19.2406V9.25653C15.2646 8.83467 14.9272 8.49718 14.5056 8.49718ZM3.85128 5.516C3.85128 3.35044 5.65042 1.60673 7.84312 1.71923C9.89526 1.83173 11.4695 3.57543 11.4695 5.6285V8.24406C11.4695 8.38468 11.3571 8.5253 11.1884 8.5253H4.10429C3.96373 8.5253 3.82317 8.4128 3.82317 8.24406V5.516H3.85128Z" fill="#30BD9F"/>
</svg>
