<svg width="34" height="33" viewBox="0 0 34 33" fill="none" xmlns="http://www.w3.org/2000/svg">
<path d="M11.3336 3.35999H3.40039V11.1999H11.3336V3.35999Z" fill="black"/>
<path d="M11.3336 22.4001H3.40039V30.24H11.3336V22.4001Z" fill="black"/>
<path d="M30.5992 3.35999H22.666V11.1999H30.5992V3.35999Z" fill="black"/>
<path d="M28.3325 13.44V20.16H22.666V22.4001H30.5992V13.44H28.3325Z" fill="black"/>
<path d="M22.666 24.6399V30.24H24.9325V26.88H28.3325V30.24H30.5992V24.6399H22.666Z" fill="black"/>
<path d="M13.5996 3.35999V5.6001H18.1328V11.1999H20.3996V3.35999H13.5996Z" fill="black"/>
<path d="M18.1328 13.44V17.9199H13.5996V24.6399H18.1328V30.24H20.3996V22.4001H15.8664V20.16H20.3996V15.6801H22.6664V17.9199H24.9328V13.44H18.1328Z" fill="black"/>
<path d="M15.8664 26.88H13.5996V30.24H15.8664V26.88Z" fill="black"/>
<path d="M11.3336 17.9199H7.93359V20.16H11.3336V17.9199Z" fill="black"/>
<path d="M13.6004 7.8399V13.44H3.40039V20.16H5.66717V15.6801H15.8672V7.8399H13.6004Z" fill="black"/>
</svg>
