<svg width="54" height="54" viewBox="0 0 54 54" fill="none" xmlns="http://www.w3.org/2000/svg">
<circle cx="27" cy="27" r="26.5" fill="white" stroke="#E3E9F0"/>
<path fill-rule="evenodd" clip-rule="evenodd" d="M21 19.8562C21 19.0526 21.6222 18.3542 22.4282 18.2543L22.7711 18.2117C25.0479 17.9294 28.6941 17.9294 30.9706 18.2117L31.3136 18.2543C32.117 18.3539 32.7417 19.0528 32.7417 19.8562C32.7417 22.5988 31.889 23.881 29.8821 25.3194C28.9383 26.0164 28.6838 26.3318 28.6838 26.9212C28.6838 27.5105 28.9383 27.8259 29.8714 28.5152C31.8885 29.9609 32.7417 31.2373 32.7417 33.9562C32.7417 34.7598 32.1195 35.4581 31.3136 35.5581L31.2783 35.5624C28.8314 35.8659 24.9103 35.8659 22.4634 35.5624L22.4282 35.5581C21.6248 35.4584 21 34.7595 21 33.9562C21 31.2373 21.8533 29.9609 23.8703 28.5152C23.8823 28.5051 23.8823 28.5051 23.9225 28.4739C24.8357 27.7664 25.058 27.4769 25.058 26.8912C25.058 26.3018 24.8035 25.9864 23.8596 25.2894C21.8533 23.8514 21 22.5751 21 19.8562ZM30.589 22.0081C30.7576 22.0339 30.8485 22.1842 30.791 22.342C30.791 22.342 30.7576 22.4478 30.7096 22.5454C30.2915 23.3951 29.8008 23.6978 28.973 24.291C27.6571 25.2628 27.1452 25.8971 27.1863 27.1123C27.1804 27.2439 27.1862 27.1154 27.1862 27.1154C27.1862 27.283 27.0491 27.4189 26.8773 27.4189C26.7066 27.4189 26.5708 27.2795 26.5684 27.1154C26.5684 27.1154 26.5742 27.2439 26.5683 27.1123C26.6094 25.8971 26.0975 25.2628 24.7816 24.291C23.9538 23.6978 23.4631 23.3951 23.045 22.5454C22.997 22.4478 22.9636 22.342 22.9636 22.342C22.9066 22.1834 22.9987 22.0336 23.1656 22.0081L24.033 21.8758C25.6039 21.636 28.1538 21.6365 29.7216 21.8758L30.589 22.0081Z" fill="#65678F"/>
</svg>
