<svg width="22" height="31" viewBox="0 0 22 31" fill="none" xmlns="http://www.w3.org/2000/svg">
<path d="M10.6024 0C6.38273 0 2.96782 3.44158 2.96782 7.69421V10.5779C1.48604 10.8483 0 11.2087 0 11.6765V26.7259C0 26.7259 0 27.1422 0.464121 27.3396C2.14603 28.0262 8.76295 30.3864 10.2831 30.927C10.4789 31 10.5343 31 10.5854 31C10.6578 31 10.6918 31 10.8877 30.927C12.4078 30.3864 19.0417 28.0262 20.7236 27.3396C21.1537 27.1593 21.1707 26.7431 21.1707 26.7431V11.6765C21.1707 11.2087 19.706 10.8311 18.2199 10.5779V7.69421C18.2412 3.44158 14.805 0 10.6024 0ZM10.6024 3.6776C13.0891 3.6776 14.5921 5.19241 14.5921 7.6985V10.2046C11.8032 10.0072 9.42294 10.0072 6.61692 10.2046V7.6985C6.61692 5.18812 8.11999 3.6776 10.6024 3.6776ZM10.5854 13.8951C14.0556 13.8951 16.9681 14.1654 16.9681 14.6503V24.0396C16.9681 24.1855 16.9511 24.2027 16.8233 24.2542C16.6998 24.3099 10.9047 26.4169 10.9047 26.4169C10.9047 26.4169 10.6705 26.4899 10.6024 26.4899C10.53 26.4899 10.3001 26.3998 10.3001 26.3998C10.3001 26.3998 4.50496 24.2928 4.38147 24.237C4.25799 24.1812 4.2367 24.164 4.2367 24.0224V14.6332C4.20264 14.1483 7.11511 13.8951 10.5854 13.8951Z" fill="black"/>
</svg>
